PathFileType	4	(X/Y/Z)	C:\Users\WrightLab\Desktop\Jo\P1_boxCal6.trc
DataRate	CameraRate	NumFrames	NumMarkers	Units	OrigDataRate	OrigDataStartFrame	OrigNumFrames
100.00	100.00	       21	19	mm	100.00	370	       739
Frame#	Time	Headset_Front			Headset_Back			Headset_Left			Headset_Right			Left_Shoulder			Right_Shoulder			Sternum			C7			Left Elbow			Right Elbow			Left Wrist			Right Wrist			Left ASIS			Right ASIS			S2			Left Knee			Right Knee			Left Ankle			Right Ankle			
		X1	Y1	Z1	X2	Y2	Z2	X3	Y3	Z3	X4	Y4	Z4	X5	Y5	Z5	X6	Y6	Z6	X7	Y7	Z7	X8	Y8	Z8	X9	Y9	Z9	X10	Y10	Z10	X11	Y11	Z11	X12	Y12	Z12	X13	Y13	Z13	X14	Y14	Z14	X15	Y15	Z15	X16	Y16	Z16	X17	Y17	Z17	X18	Y18	Z18	X19	Y19	Z19	

370	3.690	-458.21533	1465.18396	1454.25745				-316.33655	1485.70313	1301.71167	-543.34424	1482.97180	1333.22986	-232.23891	1299.20166	1257.02527	-610.89191	1294.84473	1266.98499	-439.74670	1204.90833	1402.31836	-412.07153	1293.55627	1145.82385	-161.28375	980.92120	1211.61084	-697.47113	1020.81219	1238.86768	-70.68773	804.17175	1274.62268	-734.92529	795.95752	1357.47095	-335.69733	925.10968	1449.49072	-536.26282	919.34204	1414.62598	-389.71567	907.73877	1115.56299	-246.74440	481.54868	1386.05603	-627.96478	480.05655	1359.73242	-283.89365	110.36034	1360.97925	-580.06403	242.18285	1097.02905	
371	3.700	-458.62244	1467.00305	1464.68896				-316.42581	1487.84741	1313.38403	-543.81989	1484.99438	1343.17993	-232.00719	1301.25171	1268.66833	-610.69354	1296.29602	1275.17041	-440.50232	1207.12097	1411.71289	-411.50082	1295.67310	1155.74768	-159.74155	982.72827	1226.75171	-696.69873	1023.10065	1245.44067	-70.21724	806.42499	1294.02454	-735.40808	797.10638	1361.86719	-335.59711	927.02966	1457.13867	-536.55841	921.02625	1423.89612	-388.36542	909.49792	1124.91296	-246.86169	481.40558	1386.95691	-628.01996	484.99951	1379.02380	-284.02435	110.33613	1361.03333	-579.15588	239.90390	1121.46924	
372	3.710	-458.90521	1467.57715	1475.14148				-316.61111	1489.69617	1324.05676	-543.68256	1486.27234	1353.06299	-232.23744	1303.52429	1279.64368	-610.86133	1297.86011	1283.49231	-440.99448	1208.44727	1420.91821	-410.51172	1298.07581	1165.84900	-157.19026	984.03174	1240.61401	-695.39435	1024.76526	1251.14209	-69.52985	808.38123	1313.04529	-736.01996	798.36914	1366.13428	-336.57990	928.00635	1465.88940	-536.67023	922.82965	1432.95947	-387.78757	912.03912	1133.18591	-246.44821	481.88058	1388.75317	-628.21436	489.91687	1398.06226	-283.97800	110.27029	1361.34265	-578.67542	236.11469	1146.66211	
373	3.720	-459.97125	1468.03418	1483.21643				-316.59433	1491.12439	1335.19910	-544.40656	1487.86206	1362.76868	-232.12605	1305.27283	1288.99609	-610.91162	1299.85767	1291.75061	-441.27524	1210.21863	1430.30151	-409.72830	1300.36584	1174.14087	-156.14185	985.71490	1255.27148	-694.54956	1025.99829	1256.33521	-70.24378	810.12830	1332.18799	-736.08136	799.48297	1370.35876	-336.93976	930.05579	1473.53027	-536.29944	924.70483	1441.73865	-386.90393	914.08374	1141.50549	-247.32841	481.58630	1389.64600	-627.96521	495.32047	1415.97339	-283.98767	110.87459	1360.94104	-578.21375	230.80692	1172.73181	
374	3.730	-460.66772	1469.58667	1495.12451				-317.12134	1492.72949	1345.58887	-545.15417	1489.12390	1372.38281	-232.14655	1307.40369	1300.61755	-610.64648	1301.18188	1300.25732	-442.54218	1212.39233	1439.61853	-408.97662	1301.89758	1184.68225	-153.66321	987.80731	1268.86646	-693.97595	1027.83655	1261.13562	-70.91273	813.13977	1350.93994	-737.15515	800.61426	1374.10657	-337.18655	931.60577	1481.68286	-536.35394	926.86566	1450.55334	-386.81262	916.37677	1151.04553	-247.43091	481.39218	1392.75562	-626.86102	500.44528	1432.44128	-284.55020	111.58225	1360.75781	-578.22198	226.05539	1199.18591	
375	3.740	-462.17126	1470.38940	1503.37109				-317.36490	1493.34900	1354.82898	-544.95837	1490.38306	1381.73816	-232.06563	1309.08228	1309.34375	-610.65350	1302.85266	1308.79114	-443.11548	1214.14722	1449.00781	-408.19247	1303.05127	1195.12390	-152.35991	988.92169	1283.33069	-692.89923	1029.38062	1266.62097	-71.83652	815.34448	1370.22009	-737.85358	801.66089	1377.96021	-338.30988	933.18597	1489.25464	-536.03522	928.73322	1459.38904	-386.07700	918.09186	1159.17456	-247.97134	480.97351	1395.97156	-625.42761	505.96707	1448.15247	-284.70670	111.87511	1360.72888	-577.35065	220.32565	1224.96057	
376	3.750	-463.23926	1471.80542	1514.76892				-317.77393	1495.14563	1366.06677	-546.16608	1491.74475	1391.15295	-231.81105	1310.54980	1320.48950	-610.74329	1304.19507	1317.42627	-443.07019	1214.48901	1455.77661	-407.83032	1305.45117	1203.23999	-150.33099	990.85419	1297.14587	-691.96143	1030.77710	1271.84875	-72.56842	816.90594	1388.75159	-738.50830	802.40460	1381.58142	-338.95609	934.42633	1496.69067	-536.02057	930.56580	1468.24036	-386.42636	919.83704	1168.41565	-247.84402	481.92703	1400.67346	-623.68536	510.83908	1462.99597	-284.85233	112.29698	1360.88770	-578.80334	212.72552	1252.13184	
377	3.760	-464.82910	1472.25525	1523.81274				-318.02576	1496.65088	1376.39685	-546.27747	1492.34180	1400.48950	-231.67934	1312.06982	1331.09351	-610.54010	1305.23804	1326.26379	-443.94836	1215.31885	1465.30725	-407.03052	1306.29932	1213.95251	-148.82111	992.38007	1311.90894	-691.75958	1032.71289	1277.36572	-73.93391	819.15509	1407.35364	-739.43286	802.31470	1384.14124	-339.44278	935.53784	1503.60583	-535.50287	932.24756	1476.89478	-386.41678	920.43909	1178.72400	-247.66731	481.90909	1403.97253	-621.66528	515.16071	1476.93982	-284.84628	113.20845	1360.28699	-578.56641	204.67683	1280.29102	
378	3.770	-465.58539	1472.40710	1533.83887				-319.27359	1497.05615	1387.02136	-547.89795	1493.46411	1409.73010	-231.69728	1313.51208	1341.31238	-610.44562	1305.91064	1335.04773	-443.72031	1216.55420	1474.29407	-407.01913	1307.33325	1224.69617	-146.90759	993.50061	1325.77917	-691.21082	1034.58459	1283.15796	-74.75466	821.99536	1426.59241	-740.05823	803.54486	1388.53015	-339.44937	937.22998	1511.92981	-535.34766	933.71271	1485.76416	-386.86838	921.80750	1186.87720	-247.62292	483.16861	1407.67957	-619.58801	519.10583	1490.25317	-284.54047	113.99608	1360.52112	-579.27405	197.67982	1309.48047	
379	3.780	-467.46979	1473.03833	1542.38257				-319.72485	1498.17273	1398.14819				-231.72353	1314.48315	1352.44702	-610.40948	1306.70959	1343.91699	-444.30276	1217.70093	1484.88049				-146.52667	994.84644	1340.65527	-690.09088	1035.18970	1289.26929	-75.68364	824.03174	1446.69482	-741.02771	803.99200	1391.99976	-338.66617	938.13666	1521.59937	-535.35986	934.59198	1494.80579	-387.50958	922.33051	1196.65247	-249.37938	482.37579	1410.91663	-617.20734	522.49487	1503.12341	-285.64325	115.81232	1359.39941	-580.77155	190.46413	1337.10144	
380	3.790	-468.44150	1474.09265	1552.81799	-406.09024	1308.86841	1244.28479	-320.29199	1499.28467	1408.17969				-231.77347	1315.18982	1362.91504	-610.35095	1306.77466	1352.90125	-444.49866	1217.87939	1492.72534				-143.45972	995.95544	1353.84326	-689.96387	1036.51575	1295.67334	-76.84565	825.09808	1464.54797	-742.01154	803.38916	1394.65210	-338.99561	938.47894	1529.45105	-535.36493	935.56433	1503.79199	-387.99652	922.56464	1205.40247	-251.16183	482.21790	1413.16406	-615.29108	525.86401	1515.87537	-286.37476	116.55865	1358.71729	-581.08826	184.09341	1367.03748	
381	3.800	-470.48709	1473.82092	1560.99280	-405.53104	1309.27258	1254.11072	-321.72504	1499.18262	1418.15454				-232.05968	1316.12634	1372.78430	-610.36169	1306.95337	1361.82031	-444.69388	1218.05762	1503.25830				-142.37088	996.62921	1368.34424	-689.19391	1036.88147	1302.23193	-79.84804	827.29401	1483.92529	-742.59802	802.72357	1398.41699	-338.28506	939.03583	1540.11157	-535.25842	933.69952	1508.31567	-389.64581	922.88379	1214.99463	-252.80498	482.61658	1415.67847	-612.76019	528.23029	1527.99634	-286.73172	116.83967	1358.03015	-582.98230	176.97951	1395.96252	
382	3.810	-472.02444	1474.53430	1572.05322				-322.55420	1499.53894	1429.95667				-232.16101	1316.17896	1384.04517	-610.19238	1306.64709	1370.86902	-445.31955	1217.31848	1512.53613				-141.26395	997.72705	1382.13391	-688.95770	1037.39575	1309.12720	-81.76059	828.74823	1503.10913	-743.66956	802.94745	1402.57129	-338.17136	938.08276	1546.92480	-534.88220	934.20538	1516.94812	-391.27228	923.49414	1223.51001	-255.06667	482.63306	1419.14246	-610.19086	529.97211	1539.51404	-287.32822	117.13602	1358.13538	-584.45148	170.43771	1425.68628	
383	3.820	-474.16354	1474.09949	1581.45129	-404.51987	1309.70703	1273.76306	-323.20581	1499.78772	1440.57751				-232.37563	1316.47571	1395.01746	-610.38452	1306.26843	1379.73193	-446.03687	1217.35828	1522.35266				-140.67403	998.15997	1397.53687	-688.43915	1037.22107	1315.82568	-84.84672	829.59161	1520.44800	-745.22083	802.32556	1405.91309	-338.21112	937.09784	1554.88831	-534.89569	933.81726	1526.31982	-392.00189	922.89069	1234.00098	-257.72424	483.35278	1422.63818	-608.62213	531.90155	1551.18909	-287.00522	116.94183	1358.18835	-585.64691	163.94873	1454.42371	
384	3.830	-476.06433	1473.13074	1590.17908				-324.39832	1499.48682	1450.13330				-232.53253	1316.54053	1406.61792	-610.38538	1305.45251	1388.76355	-446.27417	1216.29358	1531.94019				-139.99263	997.72064	1411.19861	-688.05176	1036.67407	1322.85596	-87.07932	830.48468	1538.49023	-746.77429	801.98798	1409.98889	-338.07611	936.31506	1564.42175	-534.80597	932.84735	1535.10571	-393.68958	923.05988	1242.81311	-259.66306	483.00009	1425.93396	-606.56445	532.62903	1561.92456	-287.02652	117.10793	1358.59424	-587.19025	157.31146	1485.08850	
385	3.840	-477.37921	1472.71606	1600.95886				-324.77338	1499.33508	1461.42590				-233.01675	1316.14319	1416.91650	-610.56989	1304.86975	1397.62964	-447.48288	1215.11646	1541.33301				-138.96202	997.79907	1426.05823	-687.90393	1036.57886	1330.24597	-89.35550	831.70782	1557.41663	-747.78058	801.14185	1414.53015	-338.57288	935.58521	1573.37524	-535.24164	931.77777	1545.43066	-395.89130	923.21674	1251.57861	-261.59586	483.21173	1430.61304	-604.24341	532.09467	1572.33203	-287.18323	117.22909	1358.39856	-588.48816	151.62225	1515.12000	
386	3.850	-403.15710	1308.96533	1303.43457				-325.84811	1498.89404	1470.73047				-232.99899	1315.73035	1427.61438	-610.79852	1303.83594	1406.62354	-447.75443	1213.78198	1550.51819				-138.50876	997.41040	1440.19507	-686.50940	1035.06152	1337.64673	-92.40382	832.41742	1574.15100	-748.96283	799.72424	1418.54895	-338.21582	934.14276	1581.56250	-535.39679	930.82172	1554.10339	-396.54648	922.35266	1260.12708	-262.09482	482.53171	1435.75146	-602.12659	531.64288	1582.06079	-287.70819	117.85313	1358.68567	-590.24738	146.30037	1547.72131	
387	3.860							-327.20963	1497.61365	1480.69922				-233.43495	1314.90942	1439.77539	-611.08643	1302.57666	1415.60120	-449.31607	1212.39990	1560.58508				-138.33701	997.05505	1455.85632	-687.15741	1034.65515	1345.12805	-95.05749	832.72565	1591.48694	-750.69281	799.19983	1422.80164	-338.61026	932.92249	1590.07300	-535.82996	929.33411	1564.34692	-399.05405	922.33966	1268.85425	-263.37967	481.44113	1440.13940	-599.49506	530.12354	1589.21729	-287.64294	118.03179	1358.34155	-591.14539	142.59383	1576.90076	
388	3.870							-327.81546	1496.93213	1492.37927				-234.23561	1313.95142	1450.19312	-611.56000	1301.44763	1424.54858	-450.03894	1211.00647	1570.31201				-138.56500	995.95477	1469.20898	-687.12384	1033.62488	1352.63025	-98.16702	832.66827	1610.52759	-752.07312	797.93005	1427.64990	-338.37192	930.41895	1596.72900	-536.37872	927.70563	1573.16406	-400.39905	921.48041	1277.02014	-262.99011	481.01675	1444.63525	-596.92670	526.18817	1594.62146	-287.77698	118.37363	1358.59607	-592.18243	139.71602	1607.01501	
389	3.880							-329.37616	1495.70959	1500.81287				-234.96880	1312.95740	1461.04187	-612.03912	1300.14868	1433.58337	-450.87924	1208.93726	1579.51208				-138.84560	995.10303	1483.10669	-686.77417	1032.51892	1360.36597	-101.53453	833.39227	1627.96729	-753.25690	796.55780	1431.95898	-339.18054	928.66882	1605.62585	-536.98529	925.51648	1583.65271	-401.79031	921.29065	1285.47937	-262.52875	479.85733	1450.13306	-595.04175	524.02039	1604.21765	-287.59662	118.96404	1359.02563	-592.79449	139.43861	1635.91772	
390	3.890							-330.74509	1495.09900	1512.74683				-235.66090	1311.52979	1471.97632	-612.69330	1298.75781	1442.68652	-451.74808	1207.53503	1588.39893				-138.88510	993.80872	1497.64661	-686.42957	1031.14746	1368.04761	-104.69901	832.98682	1643.74097	-754.93683	795.88629	1436.71033	-339.13208	926.56494	1613.97705	-537.75562	924.41254	1593.20288	-404.14328	919.63269	1294.87231	-262.49008	479.11896	1454.22595	-592.27106	518.52600	1610.01648	-287.62445	119.36982	1359.10828	-593.18823	140.05815	1663.55505	
